<?xml version="1.0" standalone="no"?>
<!DOCTYPE svg PUBLIC "-//W3C//DTD SVG 1.1//EN" "http://www.w3.org/Graphics/SVG/1.1/DTD/svg11.dtd" >
<svg xmlns="http://www.w3.org/2000/svg">
<metadata></metadata>
<defs>
<font id="interstate-blackyrregular" horiz-adv-x="1024" >
<font-face units-per-em="2048" ascent="1638" descent="-410" />
<missing-glyph horiz-adv-x="675" />
<glyph horiz-adv-x="2048" />
<glyph horiz-adv-x="2048" />
<glyph horiz-adv-x="682" />
<glyph d="M197 1481h172q28 -101 145 -101q113 0 141 101h172q-26 -132 -100.5 -197t-216.5 -65q-138 0 -213 65.5t-100 196.5z" />
<glyph d="M319 1405q0 78 59 134t134 56q79 0 136 -55.5t57 -134.5q0 -74 -57.5 -130t-135.5 -56q-74 0 -133.5 56.5t-59.5 129.5z" />
<glyph d="M221 1501q0 121 84.5 203t206.5 82t206.5 -82t84.5 -203t-84.5 -201.5t-206.5 -80.5t-206.5 80.5t-84.5 201.5zM399 1501q0 -56 30 -88.5t83 -32.5t83 32.5t30 88.5t-30 89.5t-83 33.5t-83 -33.5t-30 -89.5z" />
<glyph unicode="&#xa;" d="M31 1219l157 327h396l-301 -327h-252zM492 1219l157 327h395l-301 -327h-251z" />
<glyph d="M293 -236q0 110 143 236h125q-34 -69 -45.5 -111t-11.5 -86q0 -27 21.5 -45t56.5 -18q74 0 174 43l35 -86q-136 -92 -289 -92q-95 0 -152 45t-57 114z" />
<glyph d="M98 1546h246l170 -131l170 131h242l-269 -327h-290z" />
<glyph unicode="&#xd;" horiz-adv-x="618" d="M125 0v1075h369v-1075h-369z" />
<glyph horiz-adv-x="1077" d="M-133 0l899 1434h444l-899 -1434h-444z" />
<glyph horiz-adv-x="1392" d="M74 786v289h114v105q0 164 72 235.5t232 71.5q148 0 233 -45v-238q-54 23 -107 23q-41 0 -57 -15.5t-16 -52.5v-84h166v-289h-160v-786h-363v786h-114zM872 1335q0 78 59.5 128t151.5 50q96 0 155.5 -49.5t59.5 -128.5q0 -85 -58.5 -133.5t-156.5 -48.5 q-94 0 -152.5 48.5t-58.5 133.5zM899 0v1075h369v-1075h-369z" />
<glyph horiz-adv-x="1392" d="M74 786v289h114v105q0 164 72 235.5t232 71.5q148 0 233 -45v-238q-54 23 -107 23q-41 0 -57 -15.5t-16 -52.5v-84h166v-289h-160v-786h-363v786h-114zM899 0v1346l369 147v-1493h-369z" />
<glyph horiz-adv-x="1300" d="M72 395v344l114 76v619h392v-414l200 127v-344l-200 -127v-330h645v-346h-1037v471z" />
<glyph horiz-adv-x="700" d="M45 408v344l127 71v523l356 147v-512l127 72v-344l-127 -72v-637h-356v479z" />
<glyph horiz-adv-x="1454" d="M135 0v285l420 512q60 76 283 319q-111 -6 -426 -6h-236v324h1131v-285l-420 -512q-120 -142 -283 -320q129 7 426 7h281v-324h-1176zM319 1853h246l170 -131l170 131h242l-268 -327h-291z" />
<glyph horiz-adv-x="1157" d="M106 0v256l236 256q162 180 264 272q-272 -8 -276 -8h-199v299h909v-256l-235 -256q-57 -65 -264 -272q272 8 276 8h223v-299h-934zM176 1546h246l170 -131l170 131h242l-269 -327h-291z" />
<glyph unicode=" "  horiz-adv-x="675" />
<glyph unicode="&#x09;" horiz-adv-x="675" />
<glyph unicode="&#xa0;" horiz-adv-x="675" />
<glyph unicode="!" horiz-adv-x="716" d="M145 190q0 92 60 150.5t153 58.5t153 -58.5t60 -150.5q0 -91 -60.5 -152t-152.5 -61t-152.5 61t-60.5 152zM156 922v512h405v-512l-67 -410h-271z" />
<glyph unicode="&#x22;" horiz-adv-x="1269" d="M117 1434h436l-80 -670h-276zM717 1434h436l-80 -670h-276z" />
<glyph unicode="#" horiz-adv-x="1638" d="M102 250v313h215v307h-215v314h215v250h373v-250h258v250h373v-250h215v-314h-215v-307h215v-313h-215v-250h-373v250h-258v-250h-373v250h-215zM668 537h303v360h-303v-360z" />
<glyph unicode="$" horiz-adv-x="1353" d="M70 162l192 301q82 -57 204 -100.5t216 -43.5q105 0 145.5 20.5t40.5 72.5q0 41 -52 70.5t-191 60.5q-78 19 -137 36.5t-114.5 40t-94.5 48.5t-72 59t-53 73.5t-30.5 91t-10.5 112.5q0 165 100 275t281 148v211h385v-208q206 -32 370 -150l-192 -301q-198 135 -400 135 q-84 0 -115.5 -22.5t-31.5 -65.5q0 -41 47.5 -64.5t187.5 -56.5q141 -35 234 -72.5t160.5 -91.5t97 -127t29.5 -174q0 -185 -102 -292.5t-285 -141.5v-211h-385v207q-233 38 -424 160z" />
<glyph unicode="%" horiz-adv-x="2211" d="M61 1008q0 143 57 246t152 152.5t217 49.5q189 0 305.5 -114.5t116.5 -329.5q0 -214 -119.5 -331.5t-306.5 -117.5q-189 0 -305.5 115t-116.5 330zM362 1012q0 -125 30 -175.5t95 -50.5t93 48t28 174q0 125 -29.5 175t-93.5 50q-68 0 -95.5 -47.5t-27.5 -173.5zM510 0 l879 1434h313l-879 -1434h-313zM1303 422q0 143 57 246t152 152.5t217 49.5q189 0 305 -114.5t116 -329.5q0 -214 -119.5 -331.5t-306.5 -117.5q-189 0 -305 114.5t-116 330.5zM1604 426q0 -125 30 -175t95 -50t92.5 47.5t27.5 173.5q0 125 -29.5 175t-93.5 50 q-67 0 -94.5 -47t-27.5 -174z" />
<glyph unicode="&#x26;" horiz-adv-x="1478" d="M53 365q0 240 299 411l-12 15q-62 71 -95.5 136.5t-33.5 143.5q0 187 136 286t358 99q145 0 256 -33t223 -98l-162 -295q-87 48 -161 72t-161 24q-46 0 -73 -17t-27 -44q0 -28 10 -48.5t37 -51.5l307 -357q46 74 127 226l299 -156q-123 -210 -209 -320l312 -358h-449 l-102 117q-199 -140 -447 -140q-196 0 -314 96t-118 292zM428 414q0 -58 35 -89.5t121 -31.5q80 0 151 47l-200 227q-107 -73 -107 -153z" />
<glyph unicode="'" horiz-adv-x="702" d="M127 1434h448l-79 -670h-289z" />
<glyph unicode="(" horiz-adv-x="880" d="M119 621q0 438 383 858l264 -158q-122 -190 -174.5 -342t-52.5 -348q0 -202 53 -358t174 -341l-264 -157q-383 420 -383 846z" />
<glyph unicode=")" horiz-adv-x="880" d="M115 -68q121 187 174 341.5t53 349.5q0 201 -52.5 353.5t-174.5 344.5l264 158q83 -94 147 -184.5t120 -197.5t86 -225t30 -239q0 -126 -30 -246.5t-86.5 -228.5t-120 -198t-146.5 -185z" />
<glyph unicode="*" horiz-adv-x="1126" d="M61 815l349 123l-349 125l144 248l272 -226l-55 349h283l-58 -347l273 226l145 -246l-354 -127l354 -127l-145 -248l-273 223l58 -346h-283l55 351l-272 -222z" />
<glyph unicode="+" horiz-adv-x="1323" d="M113 528v353h362v379h373v-379h362v-353h-362v-378h-373v378h-362z" />
<glyph unicode="," horiz-adv-x="643" d="M117 -254l28 682h420l-196 -682h-252z" />
<glyph unicode="-" horiz-adv-x="991" d="M139 541v385h713v-385h-713z" />
<glyph unicode="." horiz-adv-x="643" d="M86 213q0 102 66.5 166.5t169.5 64.5t169 -64.5t66 -166.5q0 -103 -66 -169.5t-169 -66.5t-169.5 66.5t-66.5 169.5z" />
<glyph unicode="/" horiz-adv-x="1044" d="M-33 -184l721 1802h389l-721 -1802h-389z" />
<glyph unicode="0" horiz-adv-x="1466" d="M84 715q0 174 49 315.5t136.5 234t206.5 142t259 49.5t258 -48.5t204.5 -140.5t135.5 -232.5t49 -315.5q0 -174 -49 -315.5t-136.5 -234.5t-206.5 -142.5t-259 -49.5t-258 49t-204.5 140.5t-135.5 232.5t-49 316zM492 719q0 -197 62.5 -298.5t180.5 -101.5t179 99.5 t61 296.5q0 196 -63 297.5t-181 101.5q-239 0 -239 -395z" />
<glyph unicode="1" horiz-adv-x="862" d="M82 987v252q137 7 201 50t98 145h332v-1434h-389v987h-242z" />
<glyph unicode="2" horiz-adv-x="1433" d="M109 0q4 176 46.5 316t123 244t184.5 179.5t244 137.5q110 48 142 76t32 71q0 98 -160 98q-207 0 -426 -145l-182 293q144 93 290.5 139.5t323.5 46.5q268 0 405.5 -103t137.5 -300q0 -74 -14.5 -129.5t-52.5 -108t-104.5 -99t-168.5 -93.5q-138 -63 -224 -118 t-121 -94.5t-53 -86.5h748v-324h-1171z" />
<glyph unicode="3" horiz-adv-x="1402" d="M78 197l205 258q195 -150 407 -150q123 0 179.5 36t56.5 110q0 75 -46.5 106t-156.5 31h-207v309h184q95 0 130.5 25t35.5 96q0 58 -47.5 87.5t-150.5 29.5q-101 0 -184.5 -30t-172.5 -93l-188 258q234 186 555 186q573 0 573 -412q0 -108 -51 -172t-139 -108 q110 -27 180 -103.5t70 -205.5q0 -243 -164.5 -360.5t-464.5 -117.5q-353 0 -604 220z" />
<glyph unicode="4" horiz-adv-x="1517" d="M84 256v291l772 887h393v-852h185v-336h-185v-246h-356v256h-809zM518 575q84 7 268 7h107v141q0 243 6 309q-13 -21 -31.5 -46t-32 -42t-50 -62.5t-58.5 -72.5l-20 -25q-119 -144 -189 -209z" />
<glyph unicode="5" horiz-adv-x="1456" d="M92 152l162 297q241 -142 461 -142q135 0 193.5 46t58.5 136q0 84 -49.5 126t-143.5 42q-87 0 -146 -20t-118 -62l-340 115l49 744h1045v-324h-723l-13 -199q131 64 310 64q238 0 375 -121t137 -354q0 -251 -168.5 -387t-476.5 -136q-176 0 -322.5 44.5t-290.5 130.5z " />
<glyph unicode="6" horiz-adv-x="1425" d="M82 571q0 85 16 169t53 172t93.5 166.5t142.5 148.5t193.5 120t254 79.5t316.5 29.5v-326q-269 0 -430 -71.5t-250 -204.5q152 84 369 84q152 0 263.5 -47t177 -148t65.5 -249q0 -242 -175.5 -379.5t-478.5 -137.5q-279 0 -444.5 153t-165.5 441zM461 465 q0 -81 63 -127.5t189 -46.5q115 0 182.5 45.5t67.5 130.5t-63.5 131.5t-178.5 46.5q-260 0 -260 -180z" />
<glyph unicode="7" horiz-adv-x="1417" d="M100 1110v324h1186v-287q-155 -143 -254 -274t-153 -271t-73.5 -277.5t-19.5 -324.5h-389q4 366 104.5 630t311.5 480h-713z" />
<glyph unicode="8" horiz-adv-x="1495" d="M94 446q0 65 21 120.5t56.5 93t71 61.5t74.5 41q-161 93 -161 268q0 134 76.5 231.5t210 146t307.5 48.5q266 0 427.5 -112.5t161.5 -313.5q0 -91 -42.5 -153.5t-118.5 -110.5q39 -17 74.5 -41.5t71 -62.5t56.5 -94t21 -122q0 -216 -177.5 -342.5t-478.5 -126.5t-476 126 t-175 343zM475 451q0 -76 72 -124t203 -48q130 0 200 47.5t70 124.5q0 76 -72 123t-203 47q-132 0 -201 -46.5t-69 -123.5zM537 1024q0 -60 51.5 -98.5t161.5 -38.5q109 0 158.5 38.5t49.5 98.5t-52 101.5t-161 41.5q-110 0 -159 -41t-49 -102z" />
<glyph unicode="9" horiz-adv-x="1425" d="M80 940q0 242 174 379t479 137q279 0 444.5 -153t165.5 -441q0 -85 -16 -169t-53 -172t-93.5 -166.5t-142.5 -148.5t-193.5 -120t-254 -79.5t-316.5 -29.5v326q268 0 429.5 71.5t250.5 205.5q-152 -84 -368 -84q-152 0 -263.5 47t-177 148t-65.5 249zM463 967 q0 -85 63.5 -132t178.5 -47q260 0 260 181q0 81 -63 127.5t-189 46.5q-115 0 -182.5 -45.5t-67.5 -130.5z" />
<glyph unicode=":" horiz-adv-x="643" d="M92 207q0 98 65.5 161.5t164.5 63.5t164 -63.5t65 -161.5t-65.5 -164t-163.5 -66t-164 66t-66 164zM92 872q0 98 65.5 162t164.5 64t164 -64t65 -162t-65.5 -163.5t-163.5 -65.5t-164 65.5t-66 163.5z" />
<glyph unicode=";" horiz-adv-x="643" d="M92 872q0 99 65 162.5t165 63.5q99 0 164 -63.5t65 -162.5q0 -98 -65.5 -163.5t-163.5 -65.5q-100 0 -165 65.5t-65 163.5zM96 -248l27 666h409l-192 -666h-244z" />
<glyph unicode="&#x3c;" horiz-adv-x="1054" d="M117 582v270l813 604v-479l-400 -256l400 -256v-488z" />
<glyph unicode="=" horiz-adv-x="1323" d="M164 238v372h995v-372h-995zM164 799v372h995v-372h-995z" />
<glyph unicode="&#x3e;" horiz-adv-x="1054" d="M125 -23v480l399 256l-399 256v487l813 -604v-270z" />
<glyph unicode="?" horiz-adv-x="1232" d="M43 1280q278 176 584 176q256 0 399 -100t143 -293q0 -120 -60 -196.5t-194 -141.5q-88 -43 -124.5 -91.5t-36.5 -121.5h-367q0 136 58 225t208 160q70 33 98.5 59.5t28.5 67.5q0 98 -159 98q-192 0 -396 -135zM354 190q0 92 60 150.5t153 58.5t153 -58.5t60 -150.5 q0 -91 -60.5 -152t-152.5 -61t-152.5 61t-60.5 152z" />
<glyph unicode="@" horiz-adv-x="1712" d="M117 717q0 203 94.5 372t264.5 268t380 99q157 0 295.5 -58.5t235 -156.5t152.5 -229.5t56 -274.5q0 -216 -78 -320t-223 -104t-231 101q-75 -49 -150 -73t-168 -24q-118 0 -185.5 70t-67.5 201q0 124 77 190t205 66q124 0 195 -39v55q0 50 -31.5 71t-99.5 21 q-111 0 -232 -53l-67 164q147 72 338 72q315 0 315 -291v-256q0 -68 26.5 -101.5t86.5 -33.5q76 0 107.5 67.5t31.5 218.5q0 246 -167.5 409t-420.5 163q-176 0 -311 -79.5t-206 -213.5t-71 -299q0 -265 166.5 -430.5t421.5 -165.5q153 0 260 55l58 -133q-160 -68 -318 -68 q-203 0 -372 95t-268 265t-99 380zM709 592q0 -44 28.5 -70t85.5 -26q70 0 146 39v122q-69 29 -146 29q-114 0 -114 -94z" />
<glyph unicode="A" horiz-adv-x="1560" d="M59 0l521 1434h401l520 -1434h-430l-78 252h-430l-78 -252h-426zM659 567h238l-27 95q-17 64 -40 146.5t-34 125.5t-18 86q-6 -35 -15 -74t-18 -71t-27 -96.5t-32 -116.5z" />
<glyph unicode="B" horiz-adv-x="1468" d="M145 0v1434h693q260 0 380.5 -94t120.5 -279q0 -74 -24.5 -130t-59 -88t-88.5 -63q205 -86 205 -317q0 -224 -135 -343.5t-403 -119.5h-689zM526 313h314q71 0 107 39t36 103q0 65 -35.5 101t-105.5 36h-316v-279zM526 895h299q125 0 125 113q0 112 -125 112h-299v-225z " />
<glyph unicode="C" horiz-adv-x="1404" d="M86 717q0 169 48.5 308.5t134.5 233.5t207 145.5t265 51.5q130 0 226.5 -27.5t164.5 -84t114 -130.5t85 -180l-360 -141q-41 111 -91.5 164t-140.5 53q-119 0 -178 -106.5t-59 -286.5q0 -176 59.5 -284.5t181.5 -108.5q87 0 141 45.5t115 156.5l336 -178 q-31 -62 -66 -111.5t-87 -99.5t-113 -84t-146 -55t-184 -21q-156 0 -281 56t-206 155.5t-123.5 234t-42.5 294.5z" />
<glyph unicode="D" horiz-adv-x="1478" d="M145 0v1434h502q140 0 250.5 -22t203.5 -73t154 -131.5t95 -202t34 -280.5q0 -200 -48.5 -340t-148.5 -224.5t-240.5 -122.5t-336.5 -38h-465zM547 340h86q188 0 266 84t78 295q0 201 -75 288t-257 87h-98v-754z" />
<glyph unicode="E" horiz-adv-x="1366" d="M145 0v1434h1098v-334h-704v-191h424v-329h-424v-246h718v-334h-1112z" />
<glyph unicode="F" horiz-adv-x="1347" d="M145 0v1434h1135v-338h-739v-199h448v-336h-448v-561h-396z" />
<glyph unicode="G" horiz-adv-x="1476" d="M86 717q0 160 44 294.5t127 234t210.5 155t286.5 55.5q107 0 190.5 -16.5t146 -46.5t111.5 -80.5t84 -111.5t68 -146l-361 -142q-38 101 -91 149t-150 48q-250 0 -250 -393q0 -212 67.5 -308t208.5 -96q118 0 172.5 46.5t67.5 129.5h-260v297h631v-174q0 -309 -164 -472 t-477 -163q-300 0 -481 197t-181 543z" />
<glyph unicode="H" horiz-adv-x="1548" d="M145 0v1434h406v-523h446v523h406v-1434h-406v565h-446v-565h-406z" />
<glyph unicode="I" horiz-adv-x="716" d="M156 0v1434h405v-1434h-405z" />
<glyph unicode="J" horiz-adv-x="1413" d="M47 473l389 102q39 -131 91.5 -189t150.5 -58q95 0 142.5 59t47.5 166v881h406v-850q0 -288 -152 -447.5t-450 -159.5q-272 0 -420 127.5t-205 368.5z" />
<glyph unicode="K" horiz-adv-x="1503" d="M145 0v1434h406v-168q0 -251 -6 -355q103 161 276 377l115 146h483l-432 -506l481 -928h-471l-299 610l-147 -178v-432h-406z" />
<glyph unicode="L" horiz-adv-x="1259" d="M145 0v1434h402v-1088h635v-346h-1037z" />
<glyph unicode="M" horiz-adv-x="1728" d="M145 0v1434h365l176 -383q146 -313 180 -433q34 111 181 433l176 383h360v-1434h-373v342q0 212 9 381q-55 -139 -166 -375l-189 -397l-188 397q-111 236 -166 375q8 -151 8 -381v-342h-373z" />
<glyph unicode="N" horiz-adv-x="1548" d="M145 0v1434h351l315 -424q48 -63 122 -176t101 -162q-12 76 -12 370v392h381v-1434h-324l-342 473q-46 59 -116.5 166.5t-106.5 169.5q12 -76 12 -371v-438h-381z" />
<glyph unicode="O" horiz-adv-x="1499" d="M86 715q0 175 49.5 315.5t138 233.5t210.5 142.5t268 49.5t267 -48.5t208.5 -140.5t136.5 -232t49 -316q0 -175 -49 -316t-137.5 -234t-210.5 -142.5t-268 -49.5t-267.5 49t-209.5 141t-136.5 232t-48.5 316zM498 719q0 -194 66 -294.5t188 -100.5t185.5 98.5t63.5 292.5 t-65.5 294.5t-187.5 100.5t-186 -98.5t-64 -292.5z" />
<glyph unicode="P" horiz-adv-x="1390" d="M145 0v1434h617q559 0 559 -476q0 -493 -586 -493h-198v-465h-392zM537 788h208q96 0 138.5 40t42.5 124q0 158 -174 158h-215v-322z" />
<glyph unicode="Q" horiz-adv-x="1499" d="M86 715q0 175 49.5 315.5t138 233.5t210.5 142.5t268 49.5t267 -48.5t208.5 -140.5t136.5 -232t49 -316q0 -310 -184 -520l117 -152l-269 -176l-104 147q-112 -41 -225 -41q-146 0 -267.5 49t-209.5 141t-136.5 232t-48.5 316zM498 719q0 -203 65.5 -309.5t188.5 -106.5 h18l-123 162l264 172l88 -127q19 87 19 205q0 191 -73 293t-197 102q-122 0 -186 -98.5t-64 -292.5z" />
<glyph unicode="R" horiz-adv-x="1466" d="M145 0v1434h641q560 0 560 -467q0 -302 -259 -420l287 -547h-444l-234 483h-159v-483h-392zM537 797h233q96 0 138 39.5t42 119.5q0 72 -42 113t-132 41h-239v-313z" />
<glyph unicode="S" horiz-adv-x="1390" d="M90 152l193 311q83 -57 204 -100.5t215 -43.5q105 0 146 21t41 72q0 41 -52.5 70.5t-191.5 60.5q-78 19 -137 36.5t-114.5 40t-94.5 48.5t-72 59t-53 73.5t-30.5 91t-10.5 112.5q0 203 154 327.5t411 124.5q178 0 314.5 -41.5t257.5 -124.5l-193 -311q-198 135 -399 135 q-85 0 -116.5 -22.5t-31.5 -65.5q0 -40 47.5 -64t188.5 -57q141 -35 234 -72.5t160 -91.5t96.5 -127t29.5 -174q0 -120 -43.5 -210t-124 -145t-186.5 -81.5t-238 -26.5q-166 0 -325.5 48.5t-278.5 126.5z" />
<glyph unicode="T" horiz-adv-x="1372" d="M86 1087v347h1200v-347h-401v-1087h-398v1087h-401z" />
<glyph unicode="U" horiz-adv-x="1531" d="M137 612v822h406v-822q0 -284 225 -284q221 0 221 284v822h406v-822q0 -134 -31.5 -240.5t-87.5 -179.5t-136 -122t-174 -71t-204 -22q-139 0 -250.5 36t-196.5 110t-131.5 198.5t-46.5 290.5z" />
<glyph unicode="V" horiz-adv-x="1507" d="M59 1434h447l104 -385q93 -337 146 -607q53 269 145 607l105 385h442l-494 -1434h-401z" />
<glyph unicode="W" horiz-adv-x="1896" d="M78 1434h409l39 -240q65 -400 86 -623q18 194 107 621l49 242h365l49 -242q87 -419 106 -621q21 223 86 623l39 240h406l-342 -1434h-367l-66 311q-35 159 -64 336.5t-34 257.5q-9 -93 -37 -268.5t-61 -325.5l-66 -311h-362z" />
<glyph unicode="X" horiz-adv-x="1499" d="M59 0l469 725l-452 709h461l79 -140q111 -196 138 -262q31 71 139 262l80 140h450l-452 -701l469 -733h-461l-96 166q-99 174 -138 264q-55 -126 -139 -264l-96 -166h-451z" />
<glyph unicode="Y" horiz-adv-x="1527" d="M33 1434h459l110 -217q122 -242 164 -371q42 129 164 371l110 217h455l-530 -899v-535h-402v528z" />
<glyph unicode="Z" horiz-adv-x="1454" d="M135 0v285l420 512q60 76 283 319q-111 -6 -426 -6h-236v324h1131v-285l-420 -512q-120 -142 -283 -320q129 7 426 7h281v-324h-1176z" />
<glyph unicode="[" horiz-adv-x="948" d="M162 -225v1659h624v-301h-254v-1057h254v-301h-624z" />
<glyph unicode="\" horiz-adv-x="1044" d="M-33 1618h389l721 -1802h-389z" />
<glyph unicode="]" horiz-adv-x="948" d="M162 76h254v1057h-254v301h624v-1659h-624v301z" />
<glyph unicode="^" horiz-adv-x="1269" d="M51 741l420 693h328l420 -693h-385l-201 375l-201 -375h-381z" />
<glyph unicode="_" d="M0 -125h1024v-281h-1024v281z" />
<glyph unicode="`" d="M264 1481h350l117 -262h-209z" />
<glyph unicode="a" horiz-adv-x="1142" d="M78 348q0 168 106 259t281 91q125 0 223 -45v54q0 70 -36.5 98.5t-114.5 28.5q-85 0 -153 -17.5t-146 -60.5l-97 243q206 99 463 99q220 0 326 -104t106 -296v-698h-348v72q-124 -95 -262 -95q-162 0 -255 95.5t-93 275.5zM416 354q0 -54 28 -85t86 -31q98 0 158 53v147 q-71 31 -158 31q-114 0 -114 -115z" />
<glyph unicode="b" horiz-adv-x="1171" d="M115 0v1346l368 147v-494q66 51 120.5 75t133.5 24q78 0 142 -31.5t113.5 -96.5t76.5 -174t27 -255q0 -284 -96 -424t-277 -140q-121 0 -240 95v-72h-368zM483 332q64 -51 133 -51q41 0 64.5 19t37 74t13.5 154q0 154 -27.5 210.5t-89.5 56.5q-66 0 -131 -52v-411z" />
<glyph unicode="c" horiz-adv-x="1064" d="M72 541q0 255 131 406t381 151q144 0 242 -62.5t171 -183.5l-254 -193q-42 78 -75 109t-90 31q-142 0 -142 -264q0 -259 152 -259q53 0 93 31.5t93 108.5l234 -183q-94 -139 -192.5 -197.5t-240.5 -58.5q-240 0 -371.5 145.5t-131.5 418.5z" />
<glyph unicode="d" horiz-adv-x="1171" d="M76 535q0 563 370 563q74 0 129.5 -25t110.5 -69v342l371 147v-1493h-371v76q-63 -50 -119 -74.5t-135 -24.5q-161 0 -258.5 136.5t-97.5 421.5zM438 547q0 -105 14 -164.5t39 -80.5t66 -21q65 0 129 51v411q-65 52 -131 52q-41 0 -65 -19t-38 -74.5t-14 -154.5z" />
<glyph unicode="e" horiz-adv-x="1114" d="M72 537q0 269 135 415t356 146q226 0 352.5 -150.5t126.5 -443.5q0 -54 -2 -72h-630q20 -172 182 -172q72 0 135 17.5t143 58.5l142 -236q-204 -123 -439 -123q-238 0 -369.5 153.5t-131.5 406.5zM410 662h307q-14 86 -50 124.5t-114 38.5q-125 0 -143 -163z" />
<glyph unicode="f" horiz-adv-x="784" d="M74 786v289h114v105q0 164 72 235.5t232 71.5q148 0 233 -45v-238q-54 23 -107 23q-41 0 -57 -15.5t-16 -52.5v-84h166v-289h-160v-786h-363v786h-114z" />
<glyph unicode="g" horiz-adv-x="1171" d="M76 535q0 563 370 563q74 0 129.5 -25t110.5 -69v71h371v-913q0 -138 -32 -234.5t-103.5 -161.5t-173 -102.5t-252.5 -58.5l-136 213q103 17 162.5 33.5t98 43t52 62t13.5 92.5v37q-62 -49 -118.5 -73.5t-135.5 -24.5q-78 0 -141 30t-112 93t-76 171t-27 253zM438 547 q0 -105 14 -164.5t39 -80.5t66 -21q65 0 129 51v411q-65 52 -131 52q-41 0 -65 -19t-38 -74.5t-14 -154.5z" />
<glyph unicode="h" horiz-adv-x="1208" d="M115 0v1346l368 147v-489q61 45 122 69.5t149 24.5q348 0 348 -441v-657h-371v610q0 99 -31 137.5t-92 38.5q-64 0 -94.5 -37t-30.5 -135v-614h-368z" />
<glyph unicode="i" horiz-adv-x="618" d="M98 1335q0 78 59.5 128t151.5 50q96 0 155.5 -49.5t59.5 -128.5q0 -85 -58.5 -133.5t-156.5 -48.5q-94 0 -152.5 48.5t-58.5 133.5zM125 0v1075h369v-1075h-369z" />
<glyph unicode="j" horiz-adv-x="618" d="M-113 -141q135 17 186.5 66t51.5 157v993h369v-973q0 -126 -27.5 -213.5t-88 -146t-149 -90.5t-219.5 -47zM98 1335q0 78 59.5 128t151.5 50q96 0 155.5 -49.5t59.5 -128.5q0 -85 -58.5 -133.5t-156.5 -48.5q-94 0 -152.5 48.5t-58.5 133.5z" />
<glyph unicode="k" horiz-adv-x="1175" d="M115 0v1346l368 147v-438q0 -37 -3 -155t-3 -150q34 57 162 233l72 92h419l-278 -323l287 -752h-398l-161 449l-97 -123v-326h-368z" />
<glyph unicode="l" horiz-adv-x="618" d="M125 0v1346l369 147v-1493h-369z" />
<glyph unicode="m" horiz-adv-x="1802" d="M115 0v1075h368v-71q113 94 256 94q104 0 173 -30.5t124 -90.5q68 57 141 89t173 32q179 0 262.5 -111t83.5 -330v-657h-371v610q0 99 -29 137.5t-88 38.5q-61 0 -89.5 -37t-28.5 -135v-614h-369v610q0 99 -29.5 137.5t-89.5 38.5q-61 0 -90 -37t-29 -135v-614h-368z" />
<glyph unicode="n" horiz-adv-x="1208" d="M115 0v1075h368v-71q61 45 122 69.5t149 24.5q348 0 348 -441v-657h-371v610q0 99 -31 137.5t-92 38.5q-64 0 -94.5 -37t-30.5 -135v-614h-368z" />
<glyph unicode="o" horiz-adv-x="1165" d="M72 539q0 138 37.5 245t106 175.5t161 103.5t205.5 35q231 0 371.5 -143.5t140.5 -415.5q0 -269 -141 -415.5t-371 -146.5t-370 146.5t-140 415.5zM436 539q0 -263 146 -263q145 0 145 263q0 135 -36 197.5t-109 62.5t-109.5 -63t-36.5 -197z" />
<glyph unicode="p" horiz-adv-x="1171" d="M115 -395v1470h368v-76q66 51 120.5 75t133.5 24q78 0 142 -31.5t113.5 -96.5t76.5 -174t27 -255q0 -284 -96 -424t-277 -140q-121 0 -240 95v-320zM483 332q64 -51 133 -51q41 0 64.5 19t37 74t13.5 154q0 154 -27.5 210.5t-89.5 56.5q-66 0 -131 -52v-411z" />
<glyph unicode="q" horiz-adv-x="1171" d="M76 535q0 563 370 563q74 0 129.5 -25t110.5 -69v71h371v-1323l-371 -147v471q-63 -50 -119 -74.5t-135 -24.5q-161 0 -258.5 136.5t-97.5 421.5zM438 547q0 -105 14 -164.5t39 -80.5t66 -21q65 0 129 51v411q-65 52 -131 52q-41 0 -65 -19t-38 -74.5t-14 -154.5z" />
<glyph unicode="r" horiz-adv-x="917" d="M115 0v1075h368v-78q101 101 230 101q102 0 174 -45l-86 -383q-83 90 -172 90q-71 0 -108.5 -40t-37.5 -134v-586h-368z" />
<glyph unicode="s" horiz-adv-x="1071" d="M88 66l86 278q99 -43 199 -68.5t172 -25.5q53 0 75.5 12t22.5 37q0 27 -16.5 41t-69.5 27q-133 34 -211.5 64t-135 73.5t-78 100t-21.5 140.5q0 169 110.5 261t327.5 92q113 0 202.5 -18.5t211.5 -59.5l-82 -285q-201 90 -342 90q-52 0 -71 -10.5t-19 -36.5 q0 -25 18.5 -38.5t87.5 -34.5q121 -33 195 -62t129.5 -71t78.5 -97t23 -135q0 -182 -116 -272.5t-328 -90.5q-224 0 -449 89z" />
<glyph unicode="t" horiz-adv-x="921" d="M59 786v289h164v273l359 145v-418h233v-289h-233v-389q0 -60 21.5 -83t70.5 -23q64 0 147 57l-47 -313q-119 -58 -266 -58q-149 0 -217 79.5t-68 262.5v467h-164z" />
<glyph unicode="u" horiz-adv-x="1208" d="M106 418v657h371v-610q0 -99 31 -137.5t92 -38.5q62 0 92.5 37.5t30.5 134.5v614h371v-1075h-371v72q-58 -45 -120 -70t-148 -25q-349 0 -349 441z" />
<glyph unicode="v" horiz-adv-x="1169" d="M31 1075h391l96 -395q48 -187 66 -322q17 126 67 322l99 395h389l-373 -1075h-363z" />
<glyph unicode="w" horiz-adv-x="1517" d="M35 1075h356l31 -160q65 -403 70 -438q6 30 37 200.5t46 242.5l35 155h303l33 -155q15 -72 46.5 -243t37.5 -200q34 264 72 438l28 160h353l-303 -1075h-299l-45 219q-19 84 -45.5 230t-34.5 208q-6 -30 -36.5 -200t-45.5 -242l-45 -215h-291z" />
<glyph unicode="x" horiz-adv-x="1175" d="M31 0l366 561l-325 514h401l12 -24q92 -184 111 -242q21 53 115 242l12 24h383l-330 -497l371 -578h-402l-53 98q-63 114 -112 226q-61 -132 -113 -226l-55 -98h-381z" />
<glyph unicode="y" horiz-adv-x="1208" d="M31 1075h391l102 -383q5 -25 26 -110t36.5 -156.5t19.5 -116.5q13 84 38 202t46 185l101 379h387l-521 -1454h-352l135 334z" />
<glyph unicode="z" horiz-adv-x="1157" d="M106 0v256l236 256q162 180 264 272q-272 -8 -276 -8h-199v299h909v-256l-235 -256q-57 -65 -264 -272q272 8 276 8h223v-299h-934z" />
<glyph unicode="{" horiz-adv-x="1044" d="M96 457v307h70q121 0 121 100v152q0 214 156.5 321t490.5 107v-238q-143 -17 -191.5 -70t-48.5 -175v-50q0 -59 -7.5 -103.5t-24 -75.5t-36 -51.5t-52 -34t-62.5 -21t-76 -15.5q46 -8 76 -15.5t62.5 -21.5t52 -35t36 -52t24 -75.5t7.5 -103.5v-49q0 -122 48.5 -175.5 t191.5 -70.5v-237q-334 0 -490.5 107t-156.5 321v153q0 101 -121 101h-70z" />
<glyph unicode="|" horiz-adv-x="663" d="M150 -379v2017h364v-2017h-364z" />
<glyph unicode="}" horiz-adv-x="1044" d="M111 12q143 17 191 70.5t48 175.5v49q0 59 7.5 103.5t24 75.5t36 51.5t52 34t62.5 21t76 15.5q-46 8 -76 15.5t-62.5 21.5t-52 35t-36 52t-24 75.5t-7.5 103.5v50q0 122 -48 175t-191 70v238q334 0 490.5 -107t156.5 -321v-154q0 -100 121 -100h69v-307h-69 q-121 0 -121 -101v-151q0 -214 -156.5 -321t-490.5 -107v237z" />
<glyph unicode="~" horiz-adv-x="1191" d="M92 625q84 199 156 278.5t170 79.5q21 0 38.5 -2.5t28.5 -4.5t28.5 -10t24.5 -11.5t30.5 -17.5t33.5 -19q73 -44 102 -58t48 -14q31 0 54.5 26t70.5 121l223 -98q-84 -199 -156 -278.5t-170 -79.5q-21 0 -38.5 2.5t-28.5 4.5t-28.5 10t-24.5 11.5t-30.5 17.5t-33.5 19 q-73 44 -102 58t-48 14q-30 0 -53.5 -27t-71.5 -121z" />
<glyph unicode="&#xa1;" horiz-adv-x="716" d="M145 1243q0 91 60.5 152t152.5 61t152.5 -61t60.5 -152q0 -92 -60 -150.5t-153 -58.5t-153 58.5t-60 150.5zM156 0v512l67 410h271l67 -410v-512h-405z" />
<glyph unicode="&#xa2;" horiz-adv-x="1064" d="M72 731q0 196 77.5 333t229.5 191v201h356v-188q83 -28 145.5 -84t116.5 -142l-254 -192q-41 78 -74.5 108.5t-90.5 30.5q-142 0 -142 -264q0 -258 152 -258q53 0 93.5 31t92.5 108l234 -182q-67 -98 -131.5 -154t-141.5 -80v-213h-356v222q-149 55 -228 189t-79 343z " />
<glyph unicode="&#xa3;" horiz-adv-x="1421" d="M166 0v240q82 58 126.5 124.5t61.5 165.5h-188v277h156q-7 13 -21 38.5t-22 41.5q-62 105 -62 203q0 175 140.5 270.5t414.5 95.5q313 0 557 -158l-168 -288q-183 123 -393 123q-82 0 -122 -29.5t-40 -79.5t31 -94q42 -68 63 -123h314v-277h-295q-24 -127 -107 -227h684 v-303h-1130z" />
<glyph unicode="&#xa4;" horiz-adv-x="1691" d="M31 725l325 281q45 39 82 14q20 -13 24.5 -33t-3.5 -55l-17 -74h271v215l-74 -16q-35 -8 -55 -4t-33 24q-25 37 14 82l281 326l280 -326q40 -46 15 -82q-13 -20 -33 -24t-55 4l-74 16v-215h270l-16 74q-8 35 -4 55t24 33q37 25 82 -14l326 -281l-326 -281 q-45 -39 -82 -14q-20 13 -24 33t4 55l16 74h-270v-232l74 17q35 8 55 3.5t33 -24.5q25 -36 -15 -82l-280 -325l-281 325q-39 45 -14 82q13 20 33 24.5t55 -3.5l74 -17v232h-271l17 -74q8 -35 3.5 -55t-24.5 -33q-37 -25 -82 14z" />
<glyph unicode="&#xa5;" horiz-adv-x="1486" d="M33 1434h459l102 -217q105 -227 151 -371q50 162 152 371l102 217h455l-520 -910v-35h328v-296h-328v-193h-381v193h-328v296h328v29z" />
<glyph unicode="&#xa6;" horiz-adv-x="1691" d="M31 725l325 281q45 39 82 14q20 -13 24.5 -33t-3.5 -55l-17 -74h271v215l-74 -16q-35 -8 -55 -4t-33 24q-25 37 14 82l281 326l280 -326q40 -46 15 -82q-13 -20 -33 -24t-55 4l-74 16v-215h270l-16 74q-8 35 -4 55t24 33q37 25 82 -14l326 -281l-326 -281 q-45 -39 -82 -14q-20 13 -24 33t4 55l16 74h-270v-232l74 17q35 8 55 3.5t33 -24.5q25 -36 -15 -82l-280 -325l-281 325q-39 45 -14 82q13 20 33 24.5t55 -3.5l74 -17v232h-271l17 -74q8 -35 3.5 -55t-24.5 -33q-37 -25 -82 14z" />
<glyph unicode="&#xa7;" horiz-adv-x="1478" d="M113 586q0 111 53 195t153 155q-30 64 -30 166q0 158 116.5 256t342.5 98q130 0 265 -36t216 -89l-121 -278q-183 106 -379 106q-56 0 -77 -11.5t-21 -33.5q0 -20 8.5 -33.5t46.5 -33.5t113 -43q125 -41 204.5 -71t148.5 -64t106 -64.5t63.5 -72t35.5 -87.5t9 -110 q0 -112 -53.5 -196.5t-155.5 -154.5q33 -65 33 -166q0 -158 -116.5 -256t-342.5 -98q-129 0 -263 35.5t-218 89.5l121 279q185 -107 379 -107q56 0 77 11.5t21 33.5q0 31 -30.5 54t-137.5 57q-125 41 -205 70.5t-148.5 63.5t-106 64.5t-63.5 72.5t-35 88t-9 110zM475 616 q0 -37 19.5 -61.5t77 -51.5t173.5 -63q127 -41 185 -69q38 31 56 61.5t18 71.5q0 55 -48 86t-223 90q-118 38 -184 70q-74 -59 -74 -134z" />
<glyph unicode="&#xa8;" d="M86 1405q0 73 54.5 126.5t127.5 53.5t128 -53.5t55 -126.5q0 -69 -55.5 -122.5t-127.5 -53.5t-127 53.5t-55 122.5zM573 1405q0 73 55.5 126.5t129.5 53.5q70 0 125 -54t55 -126q0 -69 -55.5 -122.5t-124.5 -53.5q-73 0 -129 53.5t-56 122.5z" />
<glyph unicode="&#xa9;" horiz-adv-x="1712" d="M117 717q0 155 57 292t155 235t235 155t292 57t292 -57t235 -155t155 -235t57 -292q0 -207 -96.5 -376.5t-266 -266.5t-376.5 -97t-376.5 97t-266 266.5t-96.5 376.5zM268 717q0 -174 76.5 -310t210.5 -210t301 -74t301 74t210.5 210t76.5 310t-76.5 310t-210.5 210 t-301 74t-301 -74t-210.5 -210t-76.5 -310zM492 725q0 190 101.5 302t264.5 112q96 0 161.5 -28t103.5 -77.5t67 -130.5l-203 -80q-27 66 -52.5 94.5t-76.5 28.5q-133 0 -133 -221q0 -99 33.5 -159t101.5 -60q51 0 80 25t64 87l188 -100q-23 -43 -49.5 -76t-66 -65t-95 -49 t-123.5 -17q-175 0 -270.5 114t-95.5 300z" />
<glyph unicode="&#xaa;" d="M111 848q0 138 85 211.5t228 73.5q104 0 180 -37v43q0 55 -30 78.5t-93 23.5q-67 0 -121.5 -14t-119.5 -49l-78 198q166 80 375 80q350 0 350 -323v-568h-283v60q-97 -76 -211 -76q-132 0 -207 77t-75 222zM385 854q0 -44 22.5 -70t69.5 -26q35 0 70.5 12.5t56.5 30.5 v121q-57 24 -127 24q-92 0 -92 -92z" />
<glyph unicode="&#xab;" horiz-adv-x="1421" d="M61 537l261 538h399l-268 -536l268 -539h-399zM678 537l260 538h399l-268 -536l268 -539h-399z" />
<glyph unicode="&#xac;" horiz-adv-x="1351" d="M92 561v328h735l-18 94q-8 42 -3 63.5t28 38.5q37 27 94 -16l393 -344l-393 -344q-57 -43 -94 -16q-23 17 -28 39t3 63l18 94h-735z" />
<glyph unicode="&#xad;" horiz-adv-x="1691" d="M31 725l325 281q45 39 82 14q20 -13 24.5 -33t-3.5 -55l-17 -74h271v215l-74 -16q-35 -8 -55 -4t-33 24q-25 37 14 82l281 326l280 -326q40 -46 15 -82q-13 -20 -33 -24t-55 4l-74 16v-215h270l-16 74q-8 35 -4 55t24 33q37 25 82 -14l326 -281l-326 -281 q-45 -39 -82 -14q-20 13 -24 33t4 55l16 74h-270v-232l74 17q35 8 55 3.5t33 -24.5q25 -36 -15 -82l-280 -325l-281 325q-39 45 -14 82q13 20 33 24.5t55 -3.5l74 -17v232h-271l17 -74q8 -35 3.5 -55t-24.5 -33q-37 -25 -82 14z" />
<glyph unicode="&#xae;" horiz-adv-x="1712" d="M117 717q0 155 57 292t155 235t235 155t292 57t292 -57t235 -155t155 -235t57 -292q0 -207 -96.5 -376.5t-266 -266.5t-376.5 -97t-376.5 97t-266 266.5t-96.5 376.5zM268 717q0 -174 76.5 -310t210.5 -210t301 -74t301 74t210.5 210t76.5 310t-76.5 310t-210.5 210 t-301 74t-301 -74t-210.5 -210t-76.5 -310zM547 334v803h360q314 0 314 -263q0 -167 -146 -235l160 -305h-248l-131 270h-90v-270h-219zM766 780h131q54 0 78 22t24 66q0 86 -98 86h-135v-174z" />
<glyph unicode="&#xaf;" d="M178 1249v236h668v-236h-668z" />
<glyph unicode="&#xb0;" horiz-adv-x="1077" d="M92 1012q0 125 59.5 227t161.5 159.5t226 57.5q190 0 318 -127t128 -317q0 -195 -128 -322t-318 -127q-189 0 -318 127t-129 322zM354 1012q0 -94 51.5 -147.5t133.5 -53.5q83 0 133.5 53t50.5 148q0 91 -50.5 143.5t-133.5 52.5q-81 0 -133 -53t-52 -143z" />
<glyph unicode="&#xb1;" horiz-adv-x="1691" d="M31 725l325 281q45 39 82 14q20 -13 24.5 -33t-3.5 -55l-17 -74h271v215l-74 -16q-35 -8 -55 -4t-33 24q-25 37 14 82l281 326l280 -326q40 -46 15 -82q-13 -20 -33 -24t-55 4l-74 16v-215h270l-16 74q-8 35 -4 55t24 33q37 25 82 -14l326 -281l-326 -281 q-45 -39 -82 -14q-20 13 -24 33t4 55l16 74h-270v-232l74 17q35 8 55 3.5t33 -24.5q25 -36 -15 -82l-280 -325l-281 325q-39 45 -14 82q13 20 33 24.5t55 -3.5l74 -17v232h-271l17 -74q8 -35 3.5 -55t-24.5 -33q-37 -25 -82 14z" />
<glyph unicode="&#xb2;" horiz-adv-x="1691" d="M31 725l325 281q45 39 82 14q20 -13 24.5 -33t-3.5 -55l-17 -74h271v215l-74 -16q-35 -8 -55 -4t-33 24q-25 37 14 82l281 326l280 -326q40 -46 15 -82q-13 -20 -33 -24t-55 4l-74 16v-215h270l-16 74q-8 35 -4 55t24 33q37 25 82 -14l326 -281l-326 -281 q-45 -39 -82 -14q-20 13 -24 33t4 55l16 74h-270v-232l74 17q35 8 55 3.5t33 -24.5q25 -36 -15 -82l-280 -325l-281 325q-39 45 -14 82q13 20 33 24.5t55 -3.5l74 -17v232h-271l17 -74q8 -35 3.5 -55t-24.5 -33q-37 -25 -82 14z" />
<glyph unicode="&#xb3;" horiz-adv-x="1691" d="M31 725l325 281q45 39 82 14q20 -13 24.5 -33t-3.5 -55l-17 -74h271v215l-74 -16q-35 -8 -55 -4t-33 24q-25 37 14 82l281 326l280 -326q40 -46 15 -82q-13 -20 -33 -24t-55 4l-74 16v-215h270l-16 74q-8 35 -4 55t24 33q37 25 82 -14l326 -281l-326 -281 q-45 -39 -82 -14q-20 13 -24 33t4 55l16 74h-270v-232l74 17q35 8 55 3.5t33 -24.5q25 -36 -15 -82l-280 -325l-281 325q-39 45 -14 82q13 20 33 24.5t55 -3.5l74 -17v232h-271l17 -74q8 -35 3.5 -55t-24.5 -33q-37 -25 -82 14z" />
<glyph unicode="&#xb4;" d="M283 1219l118 262h349l-256 -262h-211z" />
<glyph unicode="&#xb5;" horiz-adv-x="1679" d="M31 725l393 344q57 43 94 16q23 -17 28 -38.5t-3 -63.5l-19 -94h631l-18 94q-8 42 -3.5 63.5t27.5 38.5q37 27 94 -16l394 -344l-394 -344q-57 -43 -94 -16q-23 17 -27.5 39t3.5 63l18 94h-631l19 -94q8 -41 3 -63t-28 -39q-37 -27 -94 16z" />
<glyph unicode="&#xb6;" horiz-adv-x="1482" d="M76 985q0 139 64.5 242.5t169 155t231.5 51.5h780v-1813h-285v1573h-121v-1573h-284v914h-90q-129 0 -233 51t-168 155t-64 244z" />
<glyph unicode="&#xb7;" horiz-adv-x="643" d="M86 752q0 102 66.5 166.5t169.5 64.5t169 -64.5t66 -166.5q0 -103 -66 -169.5t-169 -66.5t-169.5 66.5t-66.5 169.5z" />
<glyph unicode="&#xb8;" d="M229 -322l39 95q106 -49 207 -49q94 0 94 55q0 47 -45 47q-30 0 -75 -29l-78 53l41 150h125l-25 -86q41 18 86 18q77 0 118.5 -40t41.5 -109q0 -85 -59 -131.5t-169 -46.5q-151 0 -301 73z" />
<glyph unicode="&#xb9;" horiz-adv-x="1691" d="M31 725l325 281q45 39 82 14q20 -13 24.5 -33t-3.5 -55l-17 -74h271v215l-74 -16q-35 -8 -55 -4t-33 24q-25 37 14 82l281 326l280 -326q40 -46 15 -82q-13 -20 -33 -24t-55 4l-74 16v-215h270l-16 74q-8 35 -4 55t24 33q37 25 82 -14l326 -281l-326 -281 q-45 -39 -82 -14q-20 13 -24 33t4 55l16 74h-270v-232l74 17q35 8 55 3.5t33 -24.5q25 -36 -15 -82l-280 -325l-281 325q-39 45 -14 82q13 20 33 24.5t55 -3.5l74 -17v232h-271l17 -74q8 -35 3.5 -55t-24.5 -33q-37 -25 -82 14z" />
<glyph unicode="&#xba;" horiz-adv-x="1028" d="M100 1004q0 220 113.5 336t300.5 116t300.5 -116t113.5 -336q0 -219 -114 -337t-300 -118t-300 118t-114 337zM395 1004q0 -213 119 -213t119 213q0 109 -29 159.5t-90 50.5t-90 -50.5t-29 -159.5z" />
<glyph unicode="&#xbb;" horiz-adv-x="1421" d="M84 0l268 537l-268 538h399l260 -536l-260 -539h-399zM700 0l269 537l-269 538h400l260 -536l-260 -539h-400z" />
<glyph unicode="&#xbc;" horiz-adv-x="1691" d="M31 725l325 281q45 39 82 14q20 -13 24.5 -33t-3.5 -55l-17 -74h271v215l-74 -16q-35 -8 -55 -4t-33 24q-25 37 14 82l281 326l280 -326q40 -46 15 -82q-13 -20 -33 -24t-55 4l-74 16v-215h270l-16 74q-8 35 -4 55t24 33q37 25 82 -14l326 -281l-326 -281 q-45 -39 -82 -14q-20 13 -24 33t4 55l16 74h-270v-232l74 17q35 8 55 3.5t33 -24.5q25 -36 -15 -82l-280 -325l-281 325q-39 45 -14 82q13 20 33 24.5t55 -3.5l74 -17v232h-271l17 -74q8 -35 3.5 -55t-24.5 -33q-37 -25 -82 14z" />
<glyph unicode="&#xbd;" horiz-adv-x="1691" d="M31 725l325 281q45 39 82 14q20 -13 24.5 -33t-3.5 -55l-17 -74h271v215l-74 -16q-35 -8 -55 -4t-33 24q-25 37 14 82l281 326l280 -326q40 -46 15 -82q-13 -20 -33 -24t-55 4l-74 16v-215h270l-16 74q-8 35 -4 55t24 33q37 25 82 -14l326 -281l-326 -281 q-45 -39 -82 -14q-20 13 -24 33t4 55l16 74h-270v-232l74 17q35 8 55 3.5t33 -24.5q25 -36 -15 -82l-280 -325l-281 325q-39 45 -14 82q13 20 33 24.5t55 -3.5l74 -17v232h-271l17 -74q8 -35 3.5 -55t-24.5 -33q-37 -25 -82 14z" />
<glyph unicode="&#xbe;" horiz-adv-x="1691" d="M31 725l325 281q45 39 82 14q20 -13 24.5 -33t-3.5 -55l-17 -74h271v215l-74 -16q-35 -8 -55 -4t-33 24q-25 37 14 82l281 326l280 -326q40 -46 15 -82q-13 -20 -33 -24t-55 4l-74 16v-215h270l-16 74q-8 35 -4 55t24 33q37 25 82 -14l326 -281l-326 -281 q-45 -39 -82 -14q-20 13 -24 33t4 55l16 74h-270v-232l74 17q35 8 55 3.5t33 -24.5q25 -36 -15 -82l-280 -325l-281 325q-39 45 -14 82q13 20 33 24.5t55 -3.5l74 -17v232h-271l17 -74q8 -35 3.5 -55t-24.5 -33q-37 -25 -82 14z" />
<glyph unicode="&#xbf;" horiz-adv-x="1232" d="M63 371q0 119 59 194t195 144q88 43 125 91.5t37 121.5h367q0 -136 -58 -225t-208 -160q-70 -33 -98.5 -59.5t-28.5 -67.5q0 -99 159 -99q192 0 396 135l182 -292q-279 -177 -584 -177q-256 0 -399.5 100.5t-143.5 293.5zM453 1243q0 91 60.5 152t152.5 61t152.5 -61 t60.5 -152q0 -92 -60 -150.5t-153 -58.5t-153 58.5t-60 150.5z" />
<glyph unicode="&#xc0;" horiz-adv-x="1560" d="M59 0l521 1434h401l520 -1434h-430l-78 252h-430l-78 -252h-426zM424 1765h350l117 -262h-209zM659 567h238l-27 95q-17 64 -40 146.5t-34 125.5t-18 86q-6 -35 -15 -74t-18 -71t-27 -96.5t-32 -116.5z" />
<glyph unicode="&#xc1;" horiz-adv-x="1560" d="M59 0l521 1434h401l520 -1434h-430l-78 252h-430l-78 -252h-426zM657 1503l119 262h348l-256 -262h-211zM659 567h238l-27 95q-17 64 -40 146.5t-34 125.5t-18 86q-6 -35 -15 -74t-18 -71t-27 -96.5t-32 -116.5z" />
<glyph unicode="&#xc2;" horiz-adv-x="1560" d="M59 0l521 1434h401l520 -1434h-430l-78 252h-430l-78 -252h-426zM367 1503l268 328h291l268 -328h-246l-170 131l-170 -131h-241zM659 567h238l-27 95q-17 64 -40 146.5t-34 125.5t-18 86q-6 -35 -15 -74t-18 -71t-27 -96.5t-32 -116.5z" />
<glyph unicode="&#xc3;" horiz-adv-x="1560" d="M59 0l521 1434h401l520 -1434h-430l-78 252h-430l-78 -252h-426zM424 1503q0 113 58.5 185.5t156.5 72.5q80 0 145 -41q11 -6 31.5 -18t29 -16.5t20 -8.5t20.5 -4q50 0 59 84h170q0 -112 -59 -185t-156 -73q-80 0 -145 41q-11 6 -31.5 18t-29 16.5t-20 8.5t-20.5 4 q-28 0 -40.5 -19t-20.5 -65h-168zM659 567h238l-27 95q-17 64 -40 146.5t-34 125.5t-18 86q-6 -35 -15 -74t-18 -71t-27 -96.5t-32 -116.5z" />
<glyph unicode="&#xc4;" horiz-adv-x="1560" d="M59 0l521 1434h401l520 -1434h-430l-78 252h-430l-78 -252h-426zM356 1712q0 73 55 126.5t128 53.5t127.5 -53.5t54.5 -126.5q0 -69 -55 -122.5t-127 -53.5t-127.5 53.5t-55.5 122.5zM659 567h238l-27 95q-17 64 -40 146.5t-34 125.5t-18 86q-6 -35 -15 -74t-18 -71 t-27 -96.5t-32 -116.5zM844 1712q0 73 55 126.5t129 53.5q70 0 125 -54t55 -126q0 -69 -55.5 -122.5t-124.5 -53.5q-73 0 -128.5 53.5t-55.5 122.5z" />
<glyph unicode="&#xc5;" horiz-adv-x="1560" d="M59 0l488 1346q-58 78 -58 172q0 121 84.5 202.5t206.5 81.5t206.5 -81.5t84.5 -202.5q0 -100 -57 -172l487 -1346h-430l-78 252h-430l-78 -252h-426zM659 567h238l-27 95q-17 64 -40 146.5t-34 125.5t-18 86q-6 -35 -15 -74t-18 -71t-27 -96.5t-32 -116.5zM668 1518 q0 -56 29.5 -88.5t82.5 -32.5t83 32.5t30 88.5t-30 89t-83 33t-82.5 -33t-29.5 -89z" />
<glyph unicode="&#xc6;" horiz-adv-x="2193" d="M29 0l962 1434h1080v-334h-664v-191h383v-329h-383v-246h678v-334h-1036v156h-496l-96 -156h-428zM739 455h310v235q0 45 2 169t2 149q-53 -119 -174 -320z" />
<glyph unicode="&#xc7;" horiz-adv-x="1404" d="M86 717q0 169 48.5 308.5t134.5 233.5t207 145.5t265 51.5q130 0 226.5 -27.5t164.5 -84t114 -130.5t85 -180l-360 -141q-41 111 -91.5 164t-140.5 53q-119 0 -178 -106.5t-59 -286.5q0 -176 59.5 -284.5t181.5 -108.5q87 0 141 45.5t115 156.5l336 -178 q-31 -59 -64.5 -108t-84 -98t-108.5 -83t-137.5 -56.5t-172.5 -25.5l-18 -63q41 18 86 18q77 0 118 -40t41 -109q0 -85 -58.5 -131.5t-168.5 -46.5q-151 0 -301 73l39 95q106 -49 207 -49q94 0 94 55q0 47 -45 47q-31 0 -76 -29l-78 53l37 134q-179 21 -306.5 121.5 t-190 256.5t-62.5 355z" />
<glyph unicode="&#xc8;" horiz-adv-x="1366" d="M145 0v1434h1098v-334h-704v-191h424v-329h-424v-246h718v-334h-1112zM352 1765h350l117 -262h-209z" />
<glyph unicode="&#xc9;" horiz-adv-x="1366" d="M145 0v1434h1098v-334h-704v-191h424v-329h-424v-246h718v-334h-1112zM549 1503l119 262h348l-256 -262h-211z" />
<glyph unicode="&#xca;" horiz-adv-x="1366" d="M145 0v1434h1098v-334h-704v-191h424v-329h-424v-246h718v-334h-1112zM287 1503l268 328h291l268 -328h-246l-170 131l-170 -131h-241z" />
<glyph unicode="&#xcb;" horiz-adv-x="1366" d="M145 0v1434h1098v-334h-704v-191h424v-329h-424v-246h718v-334h-1112zM272 1712q0 73 55 126.5t128 53.5t127.5 -53.5t54.5 -126.5q0 -69 -55 -122.5t-127 -53.5t-127.5 53.5t-55.5 122.5zM760 1712q0 73 55 126.5t129 53.5q70 0 125 -54t55 -126q0 -69 -55.5 -122.5 t-124.5 -53.5q-73 0 -128.5 53.5t-55.5 122.5z" />
<glyph unicode="&#xcc;" horiz-adv-x="716" d="M4 1765h350l117 -262h-209zM156 0v1434h405v-1434h-405z" />
<glyph unicode="&#xcd;" horiz-adv-x="716" d="M156 0v1434h405v-1434h-405zM248 1503l119 262h348l-256 -262h-211z" />
<glyph unicode="&#xce;" horiz-adv-x="716" d="M-53 1495l268 328h291l268 -328h-246l-170 131l-170 -131h-241zM156 0v1434h405v-1434h-405z" />
<glyph unicode="&#xcf;" horiz-adv-x="716" d="M-66 1686q0 73 55 126.5t128 53.5t127.5 -53.5t54.5 -126.5q0 -69 -55 -123t-127 -54t-127.5 54t-55.5 123zM156 0v1434h405v-1434h-405zM422 1686q0 73 55 126.5t129 53.5q70 0 125 -54t55 -126q0 -69 -55.5 -123t-124.5 -54q-73 0 -128.5 54t-55.5 123z" />
<glyph unicode="&#xd0;" horiz-adv-x="1519" d="M61 584v307h125v543h502q140 0 250.5 -22t203.5 -73t154 -131.5t95 -202t34 -280.5q0 -200 -48.5 -340t-148.5 -224.5t-240.5 -122.5t-336.5 -38h-465v584h-125zM567 340h107q188 0 266 84t78 295q0 201 -75 288t-257 87h-119v-203h181v-307h-181v-244z" />
<glyph unicode="&#xd1;" horiz-adv-x="1548" d="M145 0v1434h351l315 -424q48 -63 122 -176t101 -162q-12 76 -12 370v392h381v-1434h-324l-342 473q-46 59 -116.5 166.5t-106.5 169.5q12 -76 12 -371v-438h-381zM436 1520q0 113 58.5 185.5t156.5 72.5q81 0 146 -41q12 -7 31.5 -18.5t28 -16t20 -8.5t20.5 -4 q50 0 59 84h170q0 -112 -59 -185t-156 -73q-82 0 -145 40q-13 7 -32 18.5t-28 16.5t-20 9t-20 4q-28 0 -41 -19.5t-21 -64.5h-168z" />
<glyph unicode="&#xd2;" horiz-adv-x="1499" d="M86 715q0 175 49.5 315.5t138 233.5t210.5 142.5t268 49.5t267 -48.5t208.5 -140.5t136.5 -232t49 -316q0 -175 -49 -316t-137.5 -234t-210.5 -142.5t-268 -49.5t-267.5 49t-209.5 141t-136.5 232t-48.5 316zM379 1765h350l117 -262h-209zM498 719q0 -194 66 -294.5 t188 -100.5t185.5 98.5t63.5 292.5t-65.5 294.5t-187.5 100.5t-186 -98.5t-64 -292.5z" />
<glyph unicode="&#xd3;" horiz-adv-x="1499" d="M86 715q0 175 49.5 315.5t138 233.5t210.5 142.5t268 49.5t267 -48.5t208.5 -140.5t136.5 -232t49 -316q0 -175 -49 -316t-137.5 -234t-210.5 -142.5t-268 -49.5t-267.5 49t-209.5 141t-136.5 232t-48.5 316zM498 719q0 -194 66 -294.5t188 -100.5t185.5 98.5t63.5 292.5 t-65.5 294.5t-187.5 100.5t-186 -98.5t-64 -292.5zM623 1503l118 262h349l-256 -262h-211z" />
<glyph unicode="&#xd4;" horiz-adv-x="1499" d="M86 715q0 175 49.5 315.5t138 233.5t210.5 142.5t268 49.5t267 -48.5t208.5 -140.5t136.5 -232t49 -316q0 -175 -49 -316t-137.5 -234t-210.5 -142.5t-268 -49.5t-267.5 49t-209.5 141t-136.5 232t-48.5 316zM336 1507l268 328h291l268 -328h-245l-170 131l-170 -131 h-242zM498 719q0 -194 66 -294.5t188 -100.5t185.5 98.5t63.5 292.5t-65.5 294.5t-187.5 100.5t-186 -98.5t-64 -292.5z" />
<glyph unicode="&#xd5;" horiz-adv-x="1499" d="M86 715q0 175 49.5 315.5t138 233.5t210.5 142.5t268 49.5t267 -48.5t208.5 -140.5t136.5 -232t49 -316q0 -175 -49 -316t-137.5 -234t-210.5 -142.5t-268 -49.5t-267.5 49t-209.5 141t-136.5 232t-48.5 316zM307 1503q0 140 73 231t195 91q57 0 96.5 -11t86.5 -40 q9 -5 31.5 -19t30 -18t22 -11.5t23.5 -9.5t18 -2q63 0 75 105h211q0 -140 -73 -231t-195 -91q-57 0 -96 11t-86 40q-9 5 -31.5 19t-30 18t-22 11.5t-23.5 9.5t-18 2q-34 0 -51 -24.5t-25 -80.5h-211zM498 719q0 -194 66 -294.5t188 -100.5t185.5 98.5t63.5 292.5 t-65.5 294.5t-187.5 100.5t-186 -98.5t-64 -292.5z" />
<glyph unicode="&#xd6;" horiz-adv-x="1499" d="M86 715q0 175 49.5 315.5t138 233.5t210.5 142.5t268 49.5t267 -48.5t208.5 -140.5t136.5 -232t49 -316q0 -175 -49 -316t-137.5 -234t-210.5 -142.5t-268 -49.5t-267.5 49t-209.5 141t-136.5 232t-48.5 316zM324 1712q0 73 54.5 126.5t127.5 53.5t127.5 -53.5 t54.5 -126.5q0 -69 -55 -122.5t-127 -53.5t-127 53.5t-55 122.5zM498 719q0 -194 66 -294.5t188 -100.5t185.5 98.5t63.5 292.5t-65.5 294.5t-187.5 100.5t-186 -98.5t-64 -292.5zM811 1712q0 73 55 126.5t129 53.5q70 0 125.5 -54t55.5 -126q0 -69 -56 -122.5t-125 -53.5 q-73 0 -128.5 53.5t-55.5 122.5z" />
<glyph unicode="&#xd7;" horiz-adv-x="1691" d="M31 725l325 281q45 39 82 14q20 -13 24.5 -33t-3.5 -55l-17 -74h271v215l-74 -16q-35 -8 -55 -4t-33 24q-25 37 14 82l281 326l280 -326q40 -46 15 -82q-13 -20 -33 -24t-55 4l-74 16v-215h270l-16 74q-8 35 -4 55t24 33q37 25 82 -14l326 -281l-326 -281 q-45 -39 -82 -14q-20 13 -24 33t4 55l16 74h-270v-232l74 17q35 8 55 3.5t33 -24.5q25 -36 -15 -82l-280 -325l-281 325q-39 45 -14 82q13 20 33 24.5t55 -3.5l74 -17v232h-271l17 -74q8 -35 3.5 -55t-24.5 -33q-37 -25 -82 14z" />
<glyph unicode="&#xd8;" horiz-adv-x="1499" d="M49 -102l184 313q-147 188 -147 504q0 175 49.5 315.5t138 233.5t210.5 142.5t268 49.5q114 0 202 -26l64 106h426l-182 -307q151 -193 151 -510q0 -175 -49 -316t-137.5 -234t-210.5 -142.5t-268 -49.5q-99 0 -209 29l-64 -108h-426zM498 719q0 -194 66 -294.5 t188 -100.5t185.5 98.5t63.5 292.5t-65.5 294.5t-187.5 100.5t-186 -98.5t-64 -292.5z" />
<glyph unicode="&#xd9;" horiz-adv-x="1531" d="M137 612v822h406v-822q0 -284 225 -284q221 0 221 284v822h406v-822q0 -134 -31.5 -240.5t-87.5 -179.5t-136 -122t-174 -71t-204 -22q-139 0 -250.5 36t-196.5 110t-131.5 198.5t-46.5 290.5zM412 1765h350l117 -262h-209z" />
<glyph unicode="&#xda;" horiz-adv-x="1531" d="M137 612v822h406v-822q0 -284 225 -284q221 0 221 284v822h406v-822q0 -134 -31.5 -240.5t-87.5 -179.5t-136 -122t-174 -71t-204 -22q-139 0 -250.5 36t-196.5 110t-131.5 198.5t-46.5 290.5zM645 1503l119 262h348l-256 -262h-211z" />
<glyph unicode="&#xdb;" horiz-adv-x="1531" d="M137 612v822h406v-822q0 -284 225 -284q221 0 221 284v822h406v-822q0 -134 -31.5 -240.5t-87.5 -179.5t-136 -122t-174 -71t-204 -22q-139 0 -250.5 36t-196.5 110t-131.5 198.5t-46.5 290.5zM352 1526l269 327h290l269 -327h-246l-170 131l-170 -131h-242z" />
<glyph unicode="&#xdc;" horiz-adv-x="1531" d="M137 612v822h406v-822q0 -284 225 -284q221 0 221 284v822h406v-822q0 -134 -31.5 -240.5t-87.5 -179.5t-136 -122t-174 -71t-204 -22q-139 0 -250.5 36t-196.5 110t-131.5 198.5t-46.5 290.5zM340 1712q0 73 54.5 126.5t127.5 53.5t128 -53.5t55 -126.5 q0 -69 -55.5 -122.5t-127.5 -53.5t-127 53.5t-55 122.5zM827 1712q0 73 55.5 126.5t129.5 53.5q70 0 125 -54t55 -126q0 -69 -55.5 -122.5t-124.5 -53.5q-73 0 -129 53.5t-56 122.5z" />
<glyph unicode="&#xdd;" horiz-adv-x="1527" d="M33 1434h459l110 -217q122 -242 164 -371q42 129 164 371l110 217h455l-530 -899v-535h-402v528zM655 1503l119 262h348l-256 -262h-211z" />
<glyph unicode="&#xde;" horiz-adv-x="1390" d="M145 0v1434h392v-213h225q559 0 559 -476q0 -493 -586 -493h-198v-252h-392zM537 575h208q96 0 138.5 40t42.5 124q0 158 -174 158h-215v-322z" />
<glyph unicode="&#xdf;" horiz-adv-x="1230" d="M115 -395v1401q0 243 126 362t349 119q132 0 233 -39t163.5 -126t62.5 -214q0 -110 -46 -176.5t-126 -108.5q56 -13 103 -37t89 -63.5t66 -102t24 -141.5q0 -238 -134.5 -358.5t-399.5 -120.5h-31v289h31q172 0 172 184q0 99 -47.5 141.5t-143.5 42.5h-12v279h12 q52 0 74 27.5t22 83.5q0 74 -26 107.5t-86 33.5q-59 0 -83 -41t-24 -131v-1264z" />
<glyph unicode="&#xe0;" horiz-adv-x="1142" d="M78 348q0 168 106 259t281 91q125 0 223 -45v54q0 70 -36.5 98.5t-114.5 28.5q-85 0 -153 -17.5t-146 -60.5l-97 243q206 99 463 99q220 0 326 -104t106 -296v-698h-348v72q-124 -95 -262 -95q-162 0 -255 95.5t-93 275.5zM266 1438h350l117 -262h-209zM416 354 q0 -54 28 -85t86 -31q98 0 158 53v147q-71 31 -158 31q-114 0 -114 -115z" />
<glyph unicode="&#xe1;" horiz-adv-x="1142" d="M78 348q0 168 106 259t281 91q125 0 223 -45v54q0 70 -36.5 98.5t-114.5 28.5q-85 0 -153 -17.5t-146 -60.5l-97 243q206 99 463 99q220 0 326 -104t106 -296v-698h-348v72q-124 -95 -262 -95q-162 0 -255 95.5t-93 275.5zM416 354q0 -54 28 -85t86 -31q98 0 158 53v147 q-71 31 -158 31q-114 0 -114 -115zM469 1176l119 262h348l-256 -262h-211z" />
<glyph unicode="&#xe2;" horiz-adv-x="1142" d="M78 348q0 168 106 259t281 91q125 0 223 -45v54q0 70 -36.5 98.5t-114.5 28.5q-85 0 -153 -17.5t-146 -60.5l-97 243q206 99 463 99q220 0 326 -104t106 -296v-698h-348v72q-124 -95 -262 -95q-162 0 -255 95.5t-93 275.5zM160 1176l268 327h291l268 -327h-246l-170 131 l-170 -131h-241zM416 354q0 -54 28 -85t86 -31q98 0 158 53v147q-71 31 -158 31q-114 0 -114 -115z" />
<glyph unicode="&#xe3;" horiz-adv-x="1142" d="M78 348q0 168 106 259t281 91q125 0 223 -45v54q0 70 -36.5 98.5t-114.5 28.5q-85 0 -153 -17.5t-146 -60.5l-97 243q206 99 463 99q220 0 326 -104t106 -296v-698h-348v72q-124 -95 -262 -95q-162 0 -255 95.5t-93 275.5zM236 1180q0 113 58.5 185.5t156.5 72.5 q80 0 145 -41q12 -7 31.5 -18.5t28 -16t20 -8.5t20.5 -4q51 0 60 84h170q0 -112 -59 -185t-156 -73q-81 0 -146 41q-12 7 -31.5 18.5t-28 16t-20 8.5t-20.5 4q-28 0 -41 -19.5t-21 -64.5h-167zM416 354q0 -54 28 -85t86 -31q98 0 158 53v147q-71 31 -158 31 q-114 0 -114 -115z" />
<glyph unicode="&#xe4;" horiz-adv-x="1142" d="M78 348q0 168 106 259t281 91q125 0 223 -45v54q0 70 -36.5 98.5t-114.5 28.5q-85 0 -153 -17.5t-146 -60.5l-97 243q206 99 463 99q220 0 326 -104t106 -296v-698h-348v72q-124 -95 -262 -95q-162 0 -255 95.5t-93 275.5zM143 1397q0 73 55 126.5t128 53.5t127.5 -53.5 t54.5 -126.5q0 -69 -55 -122.5t-127 -53.5t-127.5 53.5t-55.5 122.5zM416 354q0 -54 28 -85t86 -31q98 0 158 53v147q-71 31 -158 31q-114 0 -114 -115zM631 1397q0 73 55 126.5t129 53.5q70 0 125 -54t55 -126q0 -69 -55.5 -122.5t-124.5 -53.5q-73 0 -128.5 53.5 t-55.5 122.5z" />
<glyph unicode="&#xe5;" horiz-adv-x="1142" d="M78 348q0 168 106 259t281 91q125 0 223 -45v54q0 70 -36.5 98.5t-114.5 28.5q-85 0 -153 -17.5t-146 -60.5l-97 243q206 99 463 99q220 0 326 -104t106 -296v-698h-348v72q-124 -95 -262 -95q-162 0 -255 95.5t-93 275.5zM285 1501q0 121 84 203t206 82t206.5 -82 t84.5 -203t-84.5 -201.5t-206.5 -80.5t-206 80.5t-84 201.5zM416 354q0 -54 28 -85t86 -31q98 0 158 53v147q-71 31 -158 31q-114 0 -114 -115zM463 1501q0 -56 29.5 -88.5t82.5 -32.5t83 32.5t30 88.5t-30 89.5t-83 33.5t-82.5 -33.5t-29.5 -89.5z" />
<glyph unicode="&#xe6;" horiz-adv-x="1734" d="M78 348q0 168 106 259t281 91q125 0 223 -45v54q0 70 -36.5 98.5t-114.5 28.5q-85 0 -153 -17.5t-146 -60.5l-97 243q206 99 453 99q113 0 184.5 -33t114.5 -98q106 131 301 131q218 0 343.5 -151t125.5 -443q0 -54 -2 -72h-631q20 -172 182 -172q133 0 279 76l141 -236 q-204 -123 -438 -123q-222 0 -332 154q-148 -154 -395 -154q-389 0 -389 371zM416 354q0 -54 28 -85t86 -31q98 0 158 53v147q-71 31 -158 31q-114 0 -114 -115zM1030 662h307q-14 86 -49.5 124.5t-113.5 38.5q-126 0 -144 -163z" />
<glyph unicode="&#xe7;" horiz-adv-x="1064" d="M72 541q0 255 131 406t381 151q144 0 242 -62.5t171 -183.5l-254 -193q-42 78 -75 109t-90 31q-142 0 -142 -264q0 -259 152 -259q53 0 93 31.5t93 108.5l234 -183q-92 -136 -187.5 -195.5t-230.5 -60.5l-19 -63q41 18 86 18q77 0 118.5 -40t41.5 -109 q0 -85 -58.5 -131.5t-168.5 -46.5q-151 0 -301 73l39 95q106 -49 207 -49q94 0 94 55q0 47 -45 47q-31 0 -76 -29l-78 53l37 136q-191 33 -293 174.5t-102 380.5z" />
<glyph unicode="&#xe8;" horiz-adv-x="1114" d="M72 537q0 269 135 415t356 146q226 0 352.5 -150.5t126.5 -443.5q0 -54 -2 -72h-630q20 -172 182 -172q72 0 135 17.5t143 58.5l142 -236q-204 -123 -439 -123q-238 0 -369.5 153.5t-131.5 406.5zM217 1438h350l117 -262h-209zM410 662h307q-14 86 -50 124.5t-114 38.5 q-125 0 -143 -163z" />
<glyph unicode="&#xe9;" horiz-adv-x="1114" d="M72 537q0 269 135 415t356 146q226 0 352.5 -150.5t126.5 -443.5q0 -54 -2 -72h-630q20 -172 182 -172q72 0 135 17.5t143 58.5l142 -236q-204 -123 -439 -123q-238 0 -369.5 153.5t-131.5 406.5zM410 662h307q-14 86 -50 124.5t-114 38.5q-125 0 -143 -163zM438 1176 l119 262h348l-256 -262h-211z" />
<glyph unicode="&#xea;" horiz-adv-x="1114" d="M72 537q0 269 135 415t356 146q226 0 352.5 -150.5t126.5 -443.5q0 -54 -2 -72h-630q20 -172 182 -172q72 0 135 17.5t143 58.5l142 -236q-204 -123 -439 -123q-238 0 -369.5 153.5t-131.5 406.5zM152 1176l268 327h291l268 -327h-246l-170 131l-170 -131h-241zM410 662 h307q-14 86 -50 124.5t-114 38.5q-125 0 -143 -163z" />
<glyph unicode="&#xeb;" horiz-adv-x="1114" d="M72 537q0 269 135 415t356 146q226 0 352.5 -150.5t126.5 -443.5q0 -54 -2 -72h-630q20 -172 182 -172q72 0 135 17.5t143 58.5l142 -236q-204 -123 -439 -123q-238 0 -369.5 153.5t-131.5 406.5zM141 1397q0 73 55 126.5t128 53.5t127.5 -53.5t54.5 -126.5 q0 -69 -55 -122.5t-127 -53.5t-127.5 53.5t-55.5 122.5zM410 662h307q-14 86 -50 124.5t-114 38.5q-125 0 -143 -163zM629 1397q0 73 55 126.5t129 53.5q70 0 125 -54t55 -126q0 -69 -55.5 -122.5t-124.5 -53.5q-73 0 -128.5 53.5t-55.5 122.5z" />
<glyph unicode="&#xec;" horiz-adv-x="618" d="M-27 1438h351l116 -262h-209zM125 0v1075h369v-1075h-369z" />
<glyph unicode="&#xed;" horiz-adv-x="618" d="M125 0v1075h369v-1075h-369zM180 1176l119 262h348l-256 -262h-211z" />
<glyph unicode="&#xee;" horiz-adv-x="618" d="M-102 1190l268 328h291l268 -328h-246l-170 131l-170 -131h-241zM125 0v1075h369v-1075h-369z" />
<glyph unicode="&#xef;" horiz-adv-x="618" d="M-115 1386q0 73 55 127t128 54q72 0 127 -54t55 -127q0 -69 -55 -122.5t-127 -53.5t-127.5 53.5t-55.5 122.5zM125 0v1075h369v-1075h-369zM373 1386q0 73 55 127t129 54q70 0 125 -54t55 -127q0 -69 -55.5 -122.5t-124.5 -53.5q-73 0 -128.5 53.5t-55.5 122.5z" />
<glyph unicode="&#xf0;" horiz-adv-x="1165" d="M72 467q0 114 40 208t103.5 151t137 87.5t147.5 30.5q100 0 165.5 -20.5t114.5 -67.5q-23 115 -118 207l-82 -86l-148 121l66 67q-87 37 -197 43v248q225 0 391 -88l86 88l148 -121l-78 -80q246 -237 246 -708q0 -150 -42 -263.5t-115 -178.5t-162 -96.5t-193 -31.5 q-102 0 -193 32.5t-162 93t-113 155t-42 209.5zM436 467q0 -95 39 -143t107 -48t106.5 47.5t38.5 143.5q0 188 -145 188q-146 0 -146 -188z" />
<glyph unicode="&#xf1;" horiz-adv-x="1208" d="M115 0v1075h368v-71q61 45 122 69.5t149 24.5q348 0 348 -441v-657h-371v610q0 99 -31 137.5t-92 38.5q-64 0 -94.5 -37t-30.5 -135v-614h-368zM279 1219q0 113 58.5 185.5t156.5 72.5q80 0 145 -41q12 -7 31.5 -18.5t28 -16t20 -8.5t20.5 -4q51 0 60 84h170 q0 -112 -59 -185.5t-156 -73.5q-81 0 -146 41q-13 7 -32 18.5t-28 16.5t-20 9t-20 4q-28 0 -41 -19.5t-21 -64.5h-167z" />
<glyph unicode="&#xf2;" horiz-adv-x="1165" d="M72 539q0 138 37.5 245t106 175.5t161 103.5t205.5 35q231 0 371.5 -143.5t140.5 -415.5q0 -269 -141 -415.5t-371 -146.5t-370 146.5t-140 415.5zM219 1438h350l117 -262h-209zM436 539q0 -263 146 -263q145 0 145 263q0 135 -36 197.5t-109 62.5t-109.5 -63t-36.5 -197 z" />
<glyph unicode="&#xf3;" horiz-adv-x="1165" d="M72 539q0 138 37.5 245t106 175.5t161 103.5t205.5 35q231 0 371.5 -143.5t140.5 -415.5q0 -269 -141 -415.5t-371 -146.5t-370 146.5t-140 415.5zM436 539q0 -263 146 -263q145 0 145 263q0 135 -36 197.5t-109 62.5t-109.5 -63t-36.5 -197zM461 1176l119 262h348 l-256 -262h-211z" />
<glyph unicode="&#xf4;" horiz-adv-x="1165" d="M72 539q0 138 37.5 245t106 175.5t161 103.5t205.5 35q231 0 371.5 -143.5t140.5 -415.5q0 -269 -141 -415.5t-371 -146.5t-370 146.5t-140 415.5zM168 1180l268 327h291l268 -327h-245l-170 131l-170 -131h-242zM436 539q0 -263 146 -263q145 0 145 263q0 135 -36 197.5 t-109 62.5t-109.5 -63t-36.5 -197z" />
<glyph unicode="&#xf5;" horiz-adv-x="1165" d="M72 539q0 138 37.5 245t106 175.5t161 103.5t205.5 35q231 0 371.5 -143.5t140.5 -415.5q0 -269 -141 -415.5t-371 -146.5t-370 146.5t-140 415.5zM238 1180q0 113 58.5 185.5t156.5 72.5q80 0 145 -41q12 -7 31.5 -18.5t28 -16t20 -8.5t20.5 -4q51 0 60 84h170 q0 -112 -59 -185t-156 -73q-81 0 -146 41q-12 7 -31.5 18.5t-28 16t-20 8.5t-20.5 4q-28 0 -40.5 -19t-20.5 -65h-168zM436 539q0 -263 146 -263q145 0 145 263q0 135 -36 197.5t-109 62.5t-109.5 -63t-36.5 -197z" />
<glyph unicode="&#xf6;" horiz-adv-x="1165" d="M72 539q0 138 37.5 245t106 175.5t161 103.5t205.5 35q231 0 371.5 -143.5t140.5 -415.5q0 -269 -141 -415.5t-371 -146.5t-370 146.5t-140 415.5zM156 1386q0 73 55 127t127 54t127 -54t55 -127q0 -69 -55 -122.5t-127 -53.5t-127 53.5t-55 122.5zM436 539 q0 -263 146 -263q145 0 145 263q0 135 -36 197.5t-109 62.5t-109.5 -63t-36.5 -197zM643 1386q0 73 55 127t129 54q70 0 125.5 -54.5t55.5 -126.5q0 -69 -56 -122.5t-125 -53.5q-73 0 -128.5 53.5t-55.5 122.5z" />
<glyph unicode="&#xf7;" horiz-adv-x="1691" d="M31 725l325 281q45 39 82 14q20 -13 24.5 -33t-3.5 -55l-17 -74h271v215l-74 -16q-35 -8 -55 -4t-33 24q-25 37 14 82l281 326l280 -326q40 -46 15 -82q-13 -20 -33 -24t-55 4l-74 16v-215h270l-16 74q-8 35 -4 55t24 33q37 25 82 -14l326 -281l-326 -281 q-45 -39 -82 -14q-20 13 -24 33t4 55l16 74h-270v-232l74 17q35 8 55 3.5t33 -24.5q25 -36 -15 -82l-280 -325l-281 325q-39 45 -14 82q13 20 33 24.5t55 -3.5l74 -17v232h-271l17 -74q8 -35 3.5 -55t-24.5 -33q-37 -25 -82 14z" />
<glyph unicode="&#xf8;" horiz-adv-x="1165" d="M33 -102l151 256q-112 149 -112 385q0 138 37.5 245t106 175.5t161 103.5t205.5 35q77 0 151 -19l60 99h333l-149 -252q117 -145 117 -387q0 -269 -141 -415.5t-371 -146.5q-88 0 -156 21l-59 -100h-334zM436 539q0 -263 146 -263q145 0 145 263q0 135 -36 197.5 t-109 62.5t-109.5 -63t-36.5 -197z" />
<glyph unicode="&#xf9;" horiz-adv-x="1208" d="M106 418v657h371v-610q0 -99 31 -137.5t92 -38.5q62 0 92.5 37.5t30.5 134.5v614h371v-1075h-371v72q-58 -45 -120 -70t-148 -25q-349 0 -349 441zM254 1438h350l117 -262h-209z" />
<glyph unicode="&#xfa;" horiz-adv-x="1208" d="M106 418v657h371v-610q0 -99 31 -137.5t92 -38.5q62 0 92.5 37.5t30.5 134.5v614h371v-1075h-371v72q-58 -45 -120 -70t-148 -25q-349 0 -349 441zM496 1176l118 262h349l-256 -262h-211z" />
<glyph unicode="&#xfb;" horiz-adv-x="1208" d="M106 418v657h371v-610q0 -99 31 -137.5t92 -38.5q62 0 92.5 37.5t30.5 134.5v614h371v-1075h-371v72q-58 -45 -120 -70t-148 -25q-349 0 -349 441zM193 1219l268 327h291l268 -327h-246l-170 131l-170 -131h-241z" />
<glyph unicode="&#xfc;" horiz-adv-x="1208" d="M106 418v657h371v-610q0 -99 31 -137.5t92 -38.5q62 0 92.5 37.5t30.5 134.5v614h371v-1075h-371v72q-58 -45 -120 -70t-148 -25q-349 0 -349 441zM180 1405q0 73 54.5 126.5t127.5 53.5t128 -53.5t55 -126.5q0 -69 -55.5 -122.5t-127.5 -53.5t-127 53.5t-55 122.5z M668 1405q0 73 55 126.5t129 53.5q70 0 125 -54t55 -126q0 -69 -55.5 -122.5t-124.5 -53.5q-73 0 -128.5 53.5t-55.5 122.5z" />
<glyph unicode="&#xfd;" horiz-adv-x="1208" d="M31 1075h391l102 -383q5 -25 26 -110t36.5 -156.5t19.5 -116.5q13 84 38 202t46 185l101 379h387l-521 -1454h-352l135 334zM508 1165l119 262h348l-256 -262h-211z" />
<glyph unicode="&#xfe;" horiz-adv-x="1171" d="M115 -395v1741l368 147v-494q66 51 120.5 75t133.5 24q78 0 142 -31.5t113.5 -96.5t76.5 -174t27 -255q0 -284 -96 -424t-277 -140q-121 0 -240 95v-320zM483 332q64 -51 133 -51q41 0 64.5 19t37 74t13.5 154q0 154 -27.5 210.5t-89.5 56.5q-66 0 -131 -52v-411z" />
<glyph unicode="&#xff;" horiz-adv-x="1208" d="M31 1075h391l102 -383q5 -25 26 -110t36.5 -156.5t19.5 -116.5q13 84 38 202t46 185l101 379h387l-521 -1454h-352l135 334zM178 1386q0 73 55 127t127 54q73 0 128 -54t55 -127q0 -69 -55.5 -122.5t-127.5 -53.5t-127 53.5t-55 122.5zM666 1386q0 73 55 127t129 54 q70 0 125 -54t55 -127q0 -69 -55.5 -122.5t-124.5 -53.5q-73 0 -128.5 53.5t-55.5 122.5z" />
<glyph unicode="&#x152;" horiz-adv-x="2177" d="M86 715q0 174 50 315.5t137.5 234t204.5 142t253 49.5q245 0 359 -156v134h964v-334h-684v-191h404v-329h-404v-246h698v-334h-978v133q-56 -77 -150 -116.5t-213 -39.5q-136 0 -253 49t-203.5 140.5t-135.5 232.5t-49 316zM498 719q0 -194 66 -294.5t188 -100.5 t185.5 98.5t63.5 292.5t-65.5 294.5t-187.5 100.5t-186 -98.5t-64 -292.5z" />
<glyph unicode="&#x153;" horiz-adv-x="1765" d="M72 539q0 271 138 415t361 144q228 0 334 -152q116 152 320 152q217 0 343 -151t126 -443q0 -54 -2 -72h-631q20 -172 182 -172q133 0 279 76l141 -236q-204 -123 -428 -123q-130 0 -204.5 40t-131.5 116q-67 -77 -142 -116.5t-186 -39.5q-222 0 -360.5 147t-138.5 415z M436 539q0 -263 146 -263q145 0 145 263q0 135 -36 197.5t-109 62.5t-109.5 -63t-36.5 -197zM1061 662h307q-14 86 -50 124.5t-114 38.5q-125 0 -143 -163z" />
<glyph unicode="&#x178;" horiz-adv-x="1527" d="M33 1434h459l110 -217q122 -242 164 -371q42 129 164 371l110 217h455l-530 -899v-535h-402v528zM338 1702q0 73 54.5 126.5t127.5 53.5t127.5 -53.5t54.5 -126.5q0 -69 -55 -122.5t-127 -53.5t-127 53.5t-55 122.5zM825 1702q0 73 55.5 126.5t129.5 53.5q70 0 125 -54 t55 -126q0 -69 -55.5 -122.5t-124.5 -53.5q-73 0 -129 53.5t-56 122.5z" />
<glyph unicode="&#x2c6;" d="M98 1219l269 327h290l269 -327h-246l-170 131l-170 -131h-242z" />
<glyph unicode="&#x2dc;" d="M170 1219q0 113 58.5 185.5t156.5 72.5q80 0 145 -41q11 -6 31.5 -18t29 -16.5t20 -8.5t20.5 -4q50 0 59 84h170q0 -112 -59 -185.5t-156 -73.5q-80 0 -145 41q-13 7 -32 18.5t-28 16.5t-20.5 9t-20.5 4q-28 0 -40.5 -19t-20.5 -65h-168z" />
<glyph unicode="&#x2000;" horiz-adv-x="946" />
<glyph unicode="&#x2001;" horiz-adv-x="1892" />
<glyph unicode="&#x2002;" horiz-adv-x="946" />
<glyph unicode="&#x2003;" horiz-adv-x="1892" />
<glyph unicode="&#x2004;" horiz-adv-x="630" />
<glyph unicode="&#x2005;" horiz-adv-x="473" />
<glyph unicode="&#x2006;" horiz-adv-x="315" />
<glyph unicode="&#x2007;" horiz-adv-x="315" />
<glyph unicode="&#x2008;" horiz-adv-x="236" />
<glyph unicode="&#x2009;" horiz-adv-x="378" />
<glyph unicode="&#x200a;" horiz-adv-x="105" />
<glyph unicode="&#x2010;" horiz-adv-x="991" d="M139 541v385h713v-385h-713z" />
<glyph unicode="&#x2011;" horiz-adv-x="991" d="M139 541v385h713v-385h-713z" />
<glyph unicode="&#x2012;" horiz-adv-x="991" d="M139 541v385h713v-385h-713z" />
<glyph unicode="&#x2013;" horiz-adv-x="1138" d="M139 549v369h860v-369h-860z" />
<glyph unicode="&#x2014;" horiz-adv-x="1343" d="M139 549v369h1065v-369h-1065z" />
<glyph unicode="&#x2018;" horiz-adv-x="663" d="M84 782l197 652h251l-28 -652h-420z" />
<glyph unicode="&#x2019;" horiz-adv-x="663" d="M131 782l29 652h420l-197 -652h-252z" />
<glyph unicode="&#x201a;" horiz-adv-x="663" d="M125 -223l29 651h419l-196 -651h-252z" />
<glyph unicode="&#x201c;" horiz-adv-x="1245" d="M84 782l197 652h251l-28 -652h-420zM666 782l196 652h252l-29 -652h-419z" />
<glyph unicode="&#x201d;" horiz-adv-x="1245" d="M131 782l29 652h420l-197 -652h-252zM713 782l28 652h420l-196 -652h-252z" />
<glyph unicode="&#x201e;" horiz-adv-x="1245" d="M125 -223l29 651h419l-196 -651h-252zM707 -223l28 651h420l-197 -651h-251z" />
<glyph unicode="&#x2022;" horiz-adv-x="1206" d="M133 750q0 198 135.5 335.5t333.5 137.5q200 0 335.5 -137t135.5 -336q0 -198 -135.5 -333.5t-335.5 -135.5q-198 0 -333.5 135.5t-135.5 333.5z" />
<glyph unicode="&#x2026;" horiz-adv-x="1929" d="M86 213q0 102 66.5 166.5t169.5 64.5t169 -64.5t66 -166.5q0 -103 -66 -169.5t-169 -66.5t-169.5 66.5t-66.5 169.5zM729 213q0 102 66.5 166.5t169.5 64.5t169 -64.5t66 -166.5q0 -103 -66 -169.5t-169 -66.5t-169.5 66.5t-66.5 169.5zM1372 213q0 102 66.5 166.5 t169.5 64.5t169 -64.5t66 -166.5q0 -103 -66 -169.5t-169 -66.5t-169.5 66.5t-66.5 169.5z" />
<glyph unicode="&#x202f;" horiz-adv-x="378" />
<glyph unicode="&#x2039;" horiz-adv-x="804" d="M61 537l261 538h399l-268 -536l268 -539h-399z" />
<glyph unicode="&#x203a;" horiz-adv-x="804" d="M84 0l268 537l-268 538h399l260 -536l-260 -539h-399z" />
<glyph unicode="&#x205f;" horiz-adv-x="473" />
<glyph unicode="&#x2122;" horiz-adv-x="1718" d="M49 1241v193h672v-193h-223v-610h-224v610h-225zM848 631v803h203l98 -213q80 -169 102 -244q18 59 101 244l98 213h203v-803h-209v192q0 171 4 213q-67 -159 -92 -211l-107 -221l-104 221q-21 38 -94 211q4 -42 4 -213v-192h-207z" />
<glyph unicode="&#x25fc;" horiz-adv-x="1075" d="M0 0v1075h1075v-1075h-1075z" />
</font>
</defs>
</svg>
